<?xml version="1.0" standalone="no"?>
<!DOCTYPE svg PUBLIC "-//W3C//DTD SVG 20010904//EN"
 "http://www.w3.org/TR/2001/REC-SVG-20010904/DTD/svg10.dtd">
<svg version="1.0" xmlns="http://www.w3.org/2000/svg"
 width="262.000000pt" height="262.000000pt" viewBox="0 0 262.000000 262.000000"
 preserveAspectRatio="xMidYMid meet">
<metadata>
Created by potrace 1.14, written by Peter Selinger 2001-2017
</metadata>
<g transform="translate(0.000000,262.000000) scale(0.100000,-0.100000)"
fill="#000000" stroke="none">
<path d="M263 2569 c-115 -22 -201 -117 -218 -241 -9 -57 15 -145 50 -186 l24
-29 3 -404 3 -404 28 -58 c18 -35 48 -74 78 -100 46 -40 49 -45 49 -92 0 -74
26 -231 50 -305 201 -610 893 -896 1462 -603 331 170 557 525 558 876 0 72 2
79 27 100 49 40 84 80 106 121 21 40 22 52 25 450 l3 408 24 32 c81 106 73
259 -18 354 -142 149 -394 92 -457 -102 -16 -49 -15 -134 1 -180 7 -20 10 -38
8 -41 -3 -3 -39 10 -80 29 -130 60 -145 61 -679 61 -535 0 -545 -1 -674 -65
-32 -16 -62 -28 -66 -25 -4 3 -2 22 6 42 19 56 17 150 -5 199 -54 119 -184
187 -308 163z m126 -174 c54 -46 62 -122 17 -174 -11 -14 -6 -45 32 -199 l44
-184 33 49 c72 107 197 190 319 212 77 14 893 15 967 1 123 -23 255 -110 319
-211 l33 -51 46 186 c43 178 44 186 27 205 -29 32 -32 94 -7 134 24 39 58 57
108 57 49 0 113 -62 113 -111 0 -39 -29 -93 -59 -109 -20 -10 -20 -20 -23
-443 l-3 -434 -28 -36 c-18 -24 -44 -42 -77 -54 l-50 -18 0 -122 c0 -124 -14
-214 -48 -313 -96 -275 -332 -494 -617 -571 -114 -31 -326 -31 -439 0 -122 33
-232 91 -333 175 -109 91 -180 181 -239 301 -57 119 -82 228 -90 398 l-7 137
-26 7 c-14 3 -41 17 -59 30 -63 47 -62 40 -62 502 l0 420 -23 18 c-77 61 -76
166 2 208 42 23 95 19 130 -10z"/>
<path d="M674 1530 c-11 -4 -33 -22 -47 -40 l-27 -32 0 -189 c0 -149 3 -196
15 -219 33 -63 -3 -60 703 -60 l644 0 33 33 c43 43 49 83 43 280 -5 166 -10
187 -61 217 -31 19 -55 20 -657 19 -344 0 -634 -4 -646 -9z m275 -89 c38 -25
51 -70 51 -184 0 -92 -3 -108 -23 -138 -39 -58 -98 -74 -157 -44 -49 26 -60
60 -60 194 0 114 1 121 26 150 42 50 107 59 163 22z m879 1 c42 -27 52 -62 52
-187 l0 -115 -33 -36 c-57 -63 -148 -55 -191 16 -12 22 -16 55 -16 148 0 115
1 122 26 151 41 50 107 59 162 23z"/>
<path d="M1000 665 l0 -75 320 0 321 0 -3 73 -3 72 -317 3 -318 2 0 -75z"/>
</g>
</svg>
